<svg width="99" height="78" viewBox="0 0 99 78" fill="none" xmlns="http://www.w3.org/2000/svg">
<path d="M51.4909 31.5373C51.4909 32.5975 50.7171 33.4649 49.7714 33.4649C48.8257 33.4649 48.0519 32.5975 48.0519 31.5373C48.0519 30.4771 48.7827 29.6096 49.7714 29.6096C50.7601 29.6337 51.4909 30.5012 51.4909 31.5373ZM44.4409 35.3926C44.4409 35.5612 44.4409 35.8745 44.4409 35.8745C44.4409 35.8745 43.6242 34.6938 41.8832 34.6938C39.0245 34.6938 36.7677 37.1515 36.7677 40.5249C36.7677 43.8982 38.9815 46.356 41.8832 46.356C43.6457 46.356 44.4409 45.1512 44.4409 45.1512V45.6572C44.4409 45.8982 44.5914 46.0668 44.8063 46.0668H46.9342V34.9829C46.9342 34.9829 44.9783 34.9829 44.8063 34.9829C44.5914 34.9829 44.4409 35.1998 44.4409 35.3926ZM44.4409 42.5007C44.0541 43.1513 43.2588 43.7055 42.3131 43.7055C40.6365 43.7055 39.3469 42.5248 39.3469 40.5249C39.3469 38.525 40.6365 37.3443 42.3131 37.3443C43.2373 37.3443 44.0756 37.9226 44.4409 38.5491V42.5007ZM48.5248 34.9829H51.061V46.0668H48.5248V34.9829ZM86.2464 34.6938C84.5054 34.6938 83.6886 35.8745 83.6886 35.8745V29.6578H81.1524V46.0909C81.1524 46.0909 83.1083 46.0909 83.2803 46.0909C83.4952 46.0909 83.6457 45.8741 83.6457 45.6813V45.1753C83.6457 45.1753 84.4624 46.3801 86.2034 46.3801C89.0621 46.3801 91.319 43.8982 91.319 40.549C91.3404 37.1756 89.0836 34.6938 86.2464 34.6938ZM85.838 43.6814C84.8708 43.6814 84.097 43.1272 83.7101 42.4766V38.525C84.097 37.9467 84.9568 37.3202 85.838 37.3202C87.5145 37.3202 88.8042 38.5009 88.8042 40.5008C88.8042 42.5007 87.5145 43.6814 85.838 43.6814ZM79.8628 39.4888V46.0909H77.3265V39.8261C77.3265 37.9949 76.8106 37.2479 75.3705 37.2479C74.5968 37.2479 73.823 37.6816 73.3286 38.3322V46.0668H70.7924V34.9829H72.7913C73.0062 34.9829 73.1567 35.1998 73.1567 35.3926V35.8745C73.8875 35.007 74.8762 34.6938 75.8434 34.6938C76.9396 34.6938 77.8638 35.0552 78.6161 35.754C79.5188 36.5732 79.8628 37.6334 79.8628 39.4888ZM64.6666 34.6938C62.9256 34.6938 62.1089 35.8745 62.1089 35.8745V29.6578H59.5726V46.0909C59.5726 46.0909 61.5285 46.0909 61.7005 46.0909C61.9154 46.0909 62.0659 45.8741 62.0659 45.6813V45.1753C62.0659 45.1753 62.8826 46.3801 64.6236 46.3801C67.4823 46.3801 69.7392 43.8982 69.7392 40.549C69.7822 37.1756 67.5468 34.6938 64.6666 34.6938ZM64.2582 43.6814C63.291 43.6814 62.5172 43.1272 62.1304 42.4766V38.525C62.5172 37.9467 63.377 37.3202 64.2582 37.3202C65.9348 37.3202 67.2244 38.5009 67.2244 40.5008C67.2244 42.5007 65.9348 43.6814 64.2582 43.6814ZM57.4017 34.6938C58.1755 34.6938 58.5624 34.8384 58.5624 34.8384V37.4648C58.5624 37.4648 56.456 36.6696 55.1449 38.3563V46.115H52.6086V34.9829C52.6086 34.9829 54.5645 34.9829 54.7365 34.9829C54.9514 34.9829 55.1019 35.1998 55.1019 35.3926V35.8745C55.5962 35.248 56.6279 34.6938 57.4017 34.6938ZM31.1793 45.0789C31.0503 44.7175 30.9213 44.332 30.7924 44.0187C30.5774 43.4886 30.3625 42.9826 30.1905 42.5248L30.1691 42.5007C28.3636 38.0671 26.4076 33.5854 24.3442 29.1759L24.2583 29.0073C24.0433 28.5735 23.8284 28.0916 23.6349 27.6097C23.377 27.0796 23.1191 26.5254 22.6892 25.9953C21.851 24.8146 20.6473 24.1641 19.3577 24.1641C18.0465 24.1641 16.8644 24.8146 15.9831 25.923C15.5963 26.4531 15.2953 27.0073 15.0374 27.5374C14.8225 28.0193 14.6075 28.4772 14.4141 28.935L14.3281 29.1036C12.3077 33.5372 10.3303 38.019 8.50329 42.4284L8.4818 42.4766C8.28836 42.9585 8.09491 43.4404 7.87997 43.9705C7.75101 44.2838 7.62205 44.6452 7.49308 45.0307C7.14918 46.115 7.04171 47.1511 7.17068 48.2113C7.4501 50.4281 8.78271 52.2835 10.5882 53.1027C11.276 53.416 11.9853 53.5846 12.7161 53.5846C12.931 53.5846 13.1889 53.5605 13.4039 53.5364C14.2636 53.416 15.1664 53.1027 16.0261 52.5244C17.1008 51.8498 18.1325 50.8618 19.2932 49.4643C20.4539 50.8859 21.507 51.8498 22.5602 52.5244C23.42 53.0786 24.3227 53.416 25.1825 53.5364C25.3974 53.5605 25.6554 53.5846 25.8703 53.5846C26.6011 53.5846 27.3534 53.4401 27.9982 53.1027C29.8466 52.2835 31.1363 50.3799 31.4157 48.2113C31.6306 47.1993 31.5232 46.1632 31.1793 45.0789ZM19.3147 46.5969C17.8961 44.597 16.9719 42.6935 16.6494 41.1032C16.5205 40.4285 16.499 39.8261 16.5635 39.296C16.6065 38.8141 16.7784 38.4045 16.9933 38.0671C17.4877 37.272 18.326 36.766 19.3147 36.766C20.3034 36.766 21.1631 37.2479 21.636 38.0671C21.8509 38.4286 22.0014 38.8382 22.0659 39.296C22.1519 39.8261 22.1089 40.4526 21.9799 41.1032C21.6575 42.6935 20.7333 44.5729 19.3147 46.5969ZM29.8037 47.9945C29.6102 49.5366 28.7075 50.8618 27.4178 51.4401C26.7945 51.7293 26.1067 51.8257 25.4189 51.7293C24.7526 51.6329 24.1078 51.416 23.42 50.9582C22.4743 50.3799 21.5285 49.4643 20.4109 48.0909C22.1519 45.7054 23.2051 43.5127 23.5919 41.561C23.7854 40.6454 23.8069 39.8261 23.7209 39.0551C23.6134 38.3081 23.377 37.6334 23.0116 37.0551C22.1949 35.7299 20.8192 34.9588 19.2932 34.9588C17.7671 34.9588 16.3915 35.754 15.5748 37.0551C15.2094 37.6334 14.9729 38.3322 14.8655 39.0551C14.758 39.8261 14.7795 40.6695 14.9944 41.561C15.3813 43.5127 16.4775 45.7295 18.1755 48.115C17.1008 49.4643 16.1336 50.3799 15.1664 50.9823C14.4786 51.416 13.8338 51.657 13.1675 51.7534C12.4582 51.8498 11.7704 51.7293 11.1685 51.4642C9.8789 50.8859 8.95466 49.5366 8.78271 48.0186C8.69674 47.2716 8.76122 46.5487 9.01915 45.7295C9.10512 45.4404 9.23408 45.1512 9.36305 44.7898C9.55649 44.3079 9.74993 43.826 9.96487 43.32L9.98637 43.2718C11.7918 38.8864 13.7478 34.3805 15.7682 30.0193L15.8542 29.8506C16.0691 29.4169 16.2841 28.935 16.4775 28.5012C16.6924 28.0193 16.9289 27.5856 17.2083 27.2001C17.7671 26.5013 18.4979 26.1158 19.3147 26.1158C20.1314 26.1158 20.8622 26.5013 21.4211 27.2001C21.7005 27.5856 21.9369 28.0193 22.1519 28.5012C22.3668 28.935 22.5817 29.4169 22.7752 29.8506L22.8612 30.0193C24.8601 34.4046 26.816 38.9105 28.6215 43.2959V43.32C28.8364 43.8019 29.0084 44.332 29.2233 44.7898C29.3523 45.1512 29.4813 45.4404 29.5672 45.7295C29.8252 46.4765 29.9111 47.2234 29.8037 47.9945Z" fill="#4F5665"/>
</svg>
