<svg width="35" height="12" viewBox="0 0 35 12" fill="none" xmlns="http://www.w3.org/2000/svg">
<path fill-rule="evenodd" clip-rule="evenodd" d="M5.8033 0.410156C5.79186 0.410156 5.78041 0.410156 5.76897 0.410156C4.2317 0.410156 2.75261 0.784141 1.31929 1.53861C0.737571 2.98755 0.40952 4.46049 0.392354 5.96342C0.369467 7.45436 0.662711 8.9813 1.31309 10.5387C2.80983 11.2207 4.30656 11.5707 5.8033 11.5892C7.30004 11.5707 8.79677 11.2207 10.293 10.5387C10.9439 8.9813 11.2371 7.45436 11.2142 5.96342C11.1971 4.46049 10.869 2.98755 10.2873 1.53861C8.85399 0.784141 7.3749 0.410156 5.83763 0.410156C5.82619 0.410156 5.81474 0.410156 5.8033 0.410156Z" fill="#FEFEFE"/>
<path d="M1.07763 1.20745C2.58581 0.398483 4.15121 0 5.76906 0C5.7805 0 5.79195 0 5.80339 0C5.81484 0 5.82628 0 5.83772 0C7.45557 0 9.02097 0.398483 10.5291 1.20745L10.6217 1.30995C11.2372 2.83088 11.5886 4.38232 11.6058 5.95775C11.6058 5.98775 11.6058 6.01175 11.6058 6.04225V6.15074C11.6001 7.66568 11.2892 9.21112 10.6217 10.7806L10.5177 10.883C8.94658 11.6135 7.37499 11.9815 5.80339 12C4.2318 11.9815 2.6602 11.6135 1.08908 10.883L0.985132 10.7806C0.317585 9.21112 0.0066984 7.66568 0.000976562 6.15074V6.04225C0.000976562 6.01175 0.000976562 5.98775 0.000976562 5.95775C0.0181421 4.38232 0.369558 2.83088 0.985132 1.30995L1.07763 1.20745ZM5.80339 0.410483C5.79195 0.410483 5.7805 0.410483 5.76906 0.410483C4.23179 0.410483 2.7527 0.784467 1.31938 1.53894C0.737662 2.98788 0.409611 4.46081 0.392445 5.96375C0.369558 7.45469 0.662802 8.98163 1.31318 10.5391C2.80992 11.221 4.30666 11.571 5.80339 11.5895C7.30013 11.571 8.79686 11.221 10.2931 10.5391C10.944 8.98163 11.2372 7.45469 11.2143 5.96375C11.1972 4.46081 10.8691 2.98788 10.2874 1.53894C8.85408 0.784467 7.37499 0.410483 5.83772 0.410483C5.82628 0.410483 5.81484 0.410483 5.80339 0.410483Z" fill="#003399"/>
<path fill-rule="evenodd" clip-rule="evenodd" d="M5.90651 9.35055C5.82593 8.1976 5.8779 6.99615 5.54985 5.8977C5.24469 4.87174 4.08745 4.28626 4.06456 3.15731C4.04167 2.27585 4.68061 1.25589 5.8779 1.25589C7.00034 1.24989 7.69697 2.10686 7.77755 3.06082C7.8753 4.16527 6.59742 4.90774 6.26365 5.95819C5.91796 7.03265 6.01618 8.2216 5.90651 9.35055Z" fill="#003399"/>
<path fill-rule="evenodd" clip-rule="evenodd" d="M6.34941 9.07161C6.30316 8.06965 6.30316 7.11019 6.56827 6.25873C6.86151 5.29327 7.47184 4.4783 8.4045 4.21281C9.04344 4.03182 9.98134 4.81629 9.8321 5.61925C9.70527 6.26523 9.08921 7.02569 8.09934 7.11019C7.63873 7.15219 7.44323 7.53867 7.15524 7.76216C8.44455 7.62917 9.27947 7.09819 9.86071 6.54271C9.94701 7.0132 10.0047 7.80416 9.65329 8.07565C8.96286 8.58863 8.32392 8.17215 7.5119 8.41364C7.05749 8.55263 6.77521 8.85462 6.34941 9.07161Z" fill="#003399"/>
<path fill-rule="evenodd" clip-rule="evenodd" d="M5.47004 9.07161C5.52154 8.06965 5.51582 7.11019 5.2569 6.25873C4.96318 5.29327 4.35333 4.4783 3.42067 4.21281C2.78173 4.03182 1.83763 4.81629 1.99307 5.61925C2.11991 6.26523 2.73548 7.02569 3.72584 7.11019C4.18072 7.15219 4.38194 7.53867 4.66994 7.76216C3.37442 7.62917 2.54571 7.09819 1.96447 6.54271C1.87816 7.0132 1.82047 7.80416 2.1714 8.07565C2.86232 8.58863 3.50125 8.17215 4.3128 8.41364C4.76769 8.55263 5.04376 8.85462 5.47004 9.07161Z" fill="#003399"/>
<path fill-rule="evenodd" clip-rule="evenodd" d="M8.53762 10.5633V10.4004L8.65301 10.3704L8.53762 10.1894V9.88738L9.05592 10.6418L8.87187 10.6903L8.74504 10.5029L8.53762 10.5633ZM8.53762 9.88738V10.1894L8.45704 10.0684L8.42271 10.4309L8.53762 10.4004V10.5633L8.40554 10.5938L8.38218 10.8168L8.19813 10.8653L8.31924 9.88138L8.50329 9.83288L8.53762 9.88738ZM6.8225 11.0888V10.9318H6.86255C6.92597 10.9258 6.9665 10.9198 6.98367 10.9133C7.00655 10.9073 7.02944 10.8893 7.04136 10.8713C7.05853 10.8473 7.06425 10.8228 7.06425 10.7928C7.05853 10.7628 7.0528 10.7383 7.03516 10.7203C7.02372 10.7023 7.00083 10.6903 6.97794 10.6843C6.95506 10.6783 6.90308 10.6783 6.8225 10.6843V10.5274C6.86828 10.5274 6.89736 10.5214 6.9088 10.5214C6.93741 10.5154 6.96078 10.4969 6.97794 10.4789C6.99511 10.4609 7.00083 10.4369 6.99511 10.4064C6.99511 10.3764 6.98367 10.3524 6.9665 10.3399C6.95506 10.3219 6.93169 10.3099 6.89736 10.3099C6.88592 10.3099 6.86255 10.3099 6.8225 10.3159V10.1589C6.88592 10.1529 6.93169 10.1529 6.96078 10.1589C6.99511 10.1589 7.02944 10.1714 7.05853 10.1894C7.08714 10.2014 7.11002 10.2254 7.13339 10.2554C7.15055 10.2859 7.162 10.3219 7.16772 10.3644C7.17344 10.4064 7.162 10.4489 7.14483 10.4849C7.12767 10.5214 7.09858 10.5513 7.05853 10.5753C7.11574 10.5878 7.162 10.6118 7.19061 10.6478C7.22541 10.6843 7.24258 10.7263 7.2483 10.7808C7.2483 10.8228 7.24258 10.8653 7.23114 10.9073C7.21397 10.9498 7.19061 10.9798 7.162 11.0103C7.12767 11.0343 7.09286 11.0523 7.04708 11.0643C7.018 11.0703 6.94314 11.0763 6.83394 11.0888H6.8225ZM7.91013 10.5813L8.08893 10.6058C8.07749 10.7083 8.0484 10.7928 7.99691 10.8533C7.94493 10.9073 7.87007 10.9498 7.77805 10.9678C7.66266 10.9858 7.55919 10.9618 7.47288 10.8953C7.38086 10.8228 7.32888 10.7203 7.30027 10.5753C7.27691 10.4249 7.29455 10.2979 7.35749 10.2014C7.41519 10.1049 7.50721 10.0444 7.62833 10.0204C7.73752 10.0019 7.82382 10.0204 7.9044 10.0744C7.95066 10.1049 7.99071 10.1529 8.01979 10.2254L7.85291 10.2979C7.83574 10.2554 7.80666 10.2194 7.77233 10.2014C7.7318 10.1774 7.69174 10.1714 7.64549 10.1774C7.58208 10.1894 7.5363 10.2254 7.50149 10.2799C7.46716 10.3399 7.46144 10.4189 7.47861 10.5274C7.50149 10.6418 7.5363 10.7203 7.58208 10.7628C7.62833 10.8048 7.68602 10.8228 7.74896 10.8108C7.79521 10.7988 7.83002 10.7748 7.85863 10.7383C7.88724 10.7023 7.9044 10.6478 7.91013 10.5813ZM6.8225 10.1589V10.3159C6.79961 10.3159 6.77625 10.3219 6.74764 10.3219L6.64417 10.3344L6.66134 10.5454L6.78197 10.5334C6.79342 10.5334 6.81106 10.5334 6.8225 10.5274V10.6843C6.8225 10.6843 6.8225 10.6843 6.81678 10.6843L6.6785 10.6963L6.69567 10.9438L6.8225 10.9318V11.0888L6.5345 11.1188L6.45392 10.1954L6.80534 10.1654C6.81106 10.1589 6.81678 10.1589 6.8225 10.1589ZM5.71151 10.7688V10.6118C5.75156 10.6118 5.77493 10.6058 5.79209 10.5998C5.81498 10.5938 5.83215 10.5753 5.84979 10.5573C5.86123 10.5333 5.86695 10.5094 5.86695 10.4849C5.87268 10.4489 5.86123 10.4249 5.84359 10.4004C5.82642 10.3764 5.80354 10.3644 5.77493 10.3584C5.75729 10.3584 5.74012 10.3524 5.71151 10.3524V10.1954C5.79782 10.1954 5.84979 10.2014 5.8784 10.2134C5.93037 10.2254 5.97042 10.2554 6.00523 10.3039C6.03956 10.3524 6.05673 10.4124 6.05101 10.4849C6.05101 10.5393 6.03956 10.5878 6.0224 10.6298C5.99903 10.6658 5.97615 10.6963 5.94754 10.7203C5.91273 10.7383 5.88412 10.7503 5.84979 10.7628C5.81498 10.7688 5.76921 10.7688 5.71151 10.7688ZM5.71151 10.1954V10.3524C5.69435 10.3524 5.67098 10.3524 5.64237 10.3524L5.55607 10.3464V10.6118H5.64809C5.67098 10.6118 5.69435 10.6118 5.71151 10.6118V10.7688C5.70007 10.7688 5.68242 10.7688 5.66526 10.7688H5.55035L5.54462 11.1188L5.36582 11.1128L5.38346 10.1894L5.66526 10.1954C5.68242 10.1954 5.70007 10.1954 5.71151 10.1954ZM4.04789 10.6783V10.3944C4.09986 10.4064 4.13419 10.4064 4.15136 10.4064C4.17472 10.4004 4.19189 10.3944 4.20905 10.3764C4.2205 10.3584 4.23194 10.3399 4.23766 10.3099C4.24338 10.2799 4.23766 10.2554 4.22622 10.2314C4.21477 10.2074 4.19189 10.1954 4.1628 10.1834C4.15136 10.1774 4.1113 10.1714 4.04789 10.1589V10.0019L4.12275 10.0144C4.21477 10.0324 4.27819 10.0504 4.31824 10.0744C4.35877 10.0989 4.38738 10.1349 4.40455 10.1834C4.42219 10.2254 4.42791 10.2799 4.41647 10.3344C4.40455 10.4004 4.37594 10.4549 4.33016 10.4909C4.28963 10.5274 4.22622 10.5454 4.14563 10.5454C4.18044 10.5753 4.20905 10.6058 4.22622 10.6358C4.2491 10.6723 4.27247 10.7263 4.30108 10.8048L4.37594 11.0043L4.16852 10.9618L4.0765 10.7383C4.06505 10.7203 4.05933 10.6963 4.04789 10.6783ZM4.55427 10.1049L4.72688 10.1229L4.68682 10.6238C4.6811 10.7023 4.6811 10.7568 4.6811 10.7748C4.68682 10.8168 4.70399 10.8473 4.72688 10.8713C4.75596 10.9013 4.79029 10.9133 4.84227 10.9198C4.89424 10.9258 4.93429 10.9133 4.95718 10.8953C4.98627 10.8773 5.00343 10.8533 5.01488 10.8228C5.0206 10.7928 5.02632 10.7383 5.03204 10.6658L5.07257 10.1529L5.2509 10.1714L5.21085 10.6538C5.20513 10.7688 5.19321 10.8473 5.17604 10.8893C5.1646 10.9318 5.14171 10.9738 5.11835 10.9978C5.08974 11.0283 5.04969 11.0523 5.00343 11.0643C4.9629 11.0828 4.90569 11.0828 4.83655 11.0763C4.75024 11.0703 4.68682 11.0523 4.6463 11.0283C4.60624 11.0043 4.57143 10.9738 4.54855 10.9438C4.52566 10.9073 4.51422 10.8713 4.50849 10.8353C4.50277 10.7808 4.50277 10.7023 4.50849 10.5998L4.55427 10.1049ZM3.15576 10.3764L3.19009 10.2254L3.56439 10.3279L3.47237 10.6843C3.42611 10.7143 3.36842 10.7323 3.28784 10.7383C3.21297 10.7443 3.14431 10.7383 3.07517 10.7203C2.98267 10.6963 2.90829 10.6538 2.85631 10.5998C2.79862 10.5394 2.76429 10.4669 2.74712 10.3884C2.7352 10.3039 2.7352 10.2194 2.75857 10.1349C2.78145 10.0444 2.82151 9.96587 2.8792 9.89938C2.93117 9.83938 3.00031 9.80288 3.0809 9.78488C3.14431 9.76688 3.2187 9.77288 3.29976 9.79688C3.40323 9.82688 3.48381 9.86938 3.52958 9.93587C3.57583 9.99587 3.59872 10.0744 3.593 10.1589L3.41467 10.1469C3.41467 10.0989 3.40323 10.0564 3.37414 10.0204C3.34553 9.98987 3.3112 9.95987 3.25923 9.94787C3.18437 9.92987 3.12095 9.93587 3.06325 9.97187C3.00604 10.0084 2.96551 10.0804 2.9369 10.1774C2.90829 10.2859 2.91401 10.3704 2.94262 10.4369C2.97695 10.5029 3.02892 10.5454 3.09806 10.5633C3.13811 10.5753 3.17292 10.5753 3.21297 10.5753C3.2535 10.5693 3.28784 10.5573 3.32264 10.5454L3.35125 10.4309L3.15576 10.3764ZM4.04789 10.0019L3.74844 9.94787L3.59872 10.8593L3.77133 10.8893L3.83475 10.5094L3.87528 10.5154C3.91533 10.5214 3.94442 10.5333 3.96158 10.5393C3.97875 10.5513 3.99019 10.5693 4.00736 10.5878C4.01308 10.6058 4.03072 10.6358 4.04789 10.6783V10.3944C4.03072 10.3944 4.01308 10.3884 3.99019 10.3884L3.86383 10.3644L3.89817 10.1349L4.03644 10.1589C4.04216 10.1589 4.04789 10.1589 4.04789 10.1589V10.0019Z" fill="#003399"/>
<path fill-rule="evenodd" clip-rule="evenodd" d="M31.4829 8.87317V7.17074H32.1967V4.17686L31.4829 5.6738V1.93745H34.2862L35 10.5451H32.1967V8.87317H31.4829ZM31.4829 1.93745V5.6738L30.7691 7.17074H31.4829V8.87317H30.1359L29.5833 10.4546H27.8448V8.48668L29.7845 4.09837H29.3873L30.4926 1.93745H31.4829ZM27.8448 4.80484L28.7141 2.64393L27.8448 2.13695V4.80484ZM20.9314 3.97787C20.9719 3.73038 20.9719 3.48889 20.9314 3.2594V3.97787ZM27.8448 2.13695V4.80484L27.7299 5.09432C26.0143 3.80888 23.4814 4.97983 23.3374 6.33777C23.1939 7.75621 24.2243 8.90316 26.8549 8.0462L25.9509 10.5811C22.4801 10.9856 21.1331 9.54314 20.9314 7.85921V6.90525C20.9834 6.46477 21.0926 6.03628 21.2423 5.6378C22.9522 1.18299 25.7263 2.18494 26.7801 2.10045L26.9355 1.60547L27.8448 2.13695ZM27.8448 8.48668L26.9756 10.4546H27.8448V8.48668ZM17.8116 10.4001C19.6707 10.0141 21.4955 7.67172 19.665 5.80679C20.3788 5.40831 20.8222 4.69034 20.9314 3.97787V3.2594C20.805 2.51693 20.2581 1.91346 19.2277 1.89546L17.8116 1.86496V3.51889H18.3985C19.026 3.51889 18.9455 5.22132 18.1625 5.22132H17.8116V6.52526C18.6579 6.69426 18.3585 7.92521 17.8116 8.30569V10.4001ZM20.9314 6.90525V7.85921C20.8971 7.54522 20.8971 7.22523 20.9314 6.90525ZM15.3593 1.81096L14.214 4.14086L14.7261 4.09837L13.3447 10.4546H17.2995C17.4721 10.4546 17.639 10.4366 17.8116 10.4001V8.30569C17.7138 8.37819 17.6042 8.42019 17.495 8.42019H16.0731L16.5451 6.50676H17.6099C17.6847 6.50676 17.7539 6.51276 17.8116 6.52526V5.22132H16.8212L17.2184 3.51889H17.8116V1.86496L15.3593 1.81096Z" fill="#003399"/>
</svg>
