<svg width="19" height="19" viewBox="0 0 19 19" fill="none" xmlns="http://www.w3.org/2000/svg">
<path d="M15.6873 4.4375L3.31226 4.43751" stroke="#D00000" stroke-linecap="round" stroke-linejoin="round"/>
<path d="M7.8125 7.8125V12.3125" stroke="#D00000" stroke-linecap="round" stroke-linejoin="round"/>
<path d="M11.1875 7.8125V12.3125" stroke="#D00000" stroke-linecap="round" stroke-linejoin="round"/>
<path d="M14.5623 4.4375V15.125C14.5623 15.2742 14.503 15.4173 14.3975 15.5227C14.292 15.6282 14.1489 15.6875 13.9998 15.6875H4.99976C4.85057 15.6875 4.7075 15.6282 4.60201 15.5227C4.49652 15.4173 4.43726 15.2742 4.43726 15.125V4.4375" stroke="#D00000" stroke-linecap="round" stroke-linejoin="round"/>
<path d="M12.3125 4.4375V3.3125C12.3125 3.01413 12.194 2.72798 11.983 2.517C11.772 2.30603 11.4859 2.1875 11.1875 2.1875H7.8125C7.51413 2.1875 7.22798 2.30603 7.01701 2.517C6.80603 2.72798 6.6875 3.01413 6.6875 3.3125V4.4375" stroke="#D00000" stroke-linecap="round" stroke-linejoin="round"/>
</svg>
