<svg width="99" height="78" viewBox="0 0 99 78" fill="none" xmlns="http://www.w3.org/2000/svg">
<path d="M60.7191 18.6856C62.8123 17.5143 63.8496 17.668 63.8729 18.8553C63.9009 20.3976 63.7008 22.4486 63.5565 23.9326C62.7797 31.9986 61.4819 38.5896 61.3842 46.8713C64.8031 36.7866 67.6686 29.7774 71.3619 21.1449C72.5343 18.3942 73.2831 18.9083 74.2459 18.4207C77.9952 16.518 78.1348 17.684 77.6463 20.0107C75.8275 28.6284 71.1712 55.7619 70.4596 59.94C70.2548 61.1488 69.1013 60.6363 68.8035 60.1636C67.4686 58.0596 65.9615 58.0267 66.1288 56.6275C66.9662 49.6617 69.9804 32.1847 70.7666 28.0666C66.7614 37.422 62.6076 49.1174 60.4725 55.7488C60.0212 57.1569 59.1979 57.0536 58.6863 56.0233C57.9652 54.576 56.5651 53.837 56.3324 52.1267C55.6022 46.6891 57.1698 36.3244 57.3883 29.7673C55.2068 36.9302 51.546 50.8367 49.9411 57.1198C49.2806 59.7194 47.0757 59.2954 47.6618 56.7616C50.0992 46.2173 55.351 27.5684 57.621 20.8639C58.1561 19.2845 59.5562 19.3375 60.7191 18.6856Z" fill="#4F5665"/>
<path d="M47.4239 17.3927C46.7169 17.1966 44.6654 18.458 43.4048 18.7071C43.0048 18.7866 42.6233 19.2688 42.4884 19.6134C40.4696 24.8975 38.6601 29.9345 37.0925 34.5232C35.0877 34.9132 32.7433 35.4268 30.1198 36.0983C31.999 30.6059 33.8969 25.1888 35.7482 19.979C36.6599 17.4138 34.2597 17.17 33.3294 19.767C32.1199 23.1431 29.8546 29.4686 27.3473 36.8414C25.5052 37.356 23.5516 37.9442 21.5095 38.6163C20.0256 39.1044 19.9652 39.5549 20.6071 40.5688C20.9606 41.1334 21.6909 41.0765 22.0258 41.4788C22.8911 42.5213 23.4167 43.7684 24.9656 43.9571C23.5841 48.1678 22.2025 52.5102 20.9513 56.6913C20.1651 59.3158 22.4025 59.8526 23.2632 57.0754C24.6493 52.5985 26.11 48.0676 27.6124 43.55C28.8637 43.2186 31.8919 42.4756 34.6875 41.7845C32.4687 48.7136 31.008 53.9759 30.4545 56.5374C30.3522 57.0303 30.5243 57.3038 30.6173 57.5047C31.3662 58.7464 32.0779 58.7973 33.0409 60.3326C33.3014 60.7513 34.1759 60.9771 34.4736 59.9463C36.5296 52.8703 38.6461 46.2311 40.6183 40.2792C41.437 40.0752 42.9116 39.6697 43.814 38.1354C45.4187 35.4122 45.8793 35.9645 46.2654 35.1366C46.7492 34.0973 46.4282 33.1216 44.7165 33.3627C44.7165 33.3627 44.0699 33.4151 42.8744 33.5704C44.7722 28.0028 46.4329 23.2805 47.6283 19.682C48.0379 18.4633 48.0891 17.5729 47.4239 17.3927Z" fill="#4F5665"/>
<path d="M44.6239 53.5033C45.0658 54.7759 46.4473 54.3905 45.9216 52.8547C45.3866 51.29 44.0563 46.58 43.7074 45.0626C43.233 43.0179 45.289 43.5771 44.247 44.9138C43.3539 46.0632 42.7584 46.5238 41.1072 48.7095C39.5117 50.8194 39.9443 53.5575 41.6514 54.1622C43.5772 54.8448 45.2751 52.427 46.3263 50.6531C47.345 48.9354 46.3588 47.9279 45.3308 48.9434C44.6703 49.5963 43.9074 50.599 43.1352 51.1397C42.5072 51.5748 42.0141 51.1073 42.8515 49.794C43.8237 48.2735 44.9121 46.9994 45.7215 45.5625C47.3729 42.6343 44.1074 40.9463 42.7026 42.8484C41.949 43.8623 42.1398 44.8577 42.3444 45.712C42.6748 47.0804 43.9028 51.4487 44.6239 53.5033Z" fill="#4F5665"/>
</svg>
