<svg width="16" height="11" viewBox="0 0 16 11" fill="none" xmlns="http://www.w3.org/2000/svg">
<path d="M4.00008 4.83301C3.86823 4.83301 3.73933 4.87211 3.6297 4.94536C3.52007 5.01862 3.43462 5.12273 3.38416 5.24455C3.3337 5.36637 3.3205 5.50041 3.34622 5.62973C3.37195 5.75906 3.43544 5.87784 3.52868 5.97108C3.62191 6.06431 3.7407 6.12781 3.87002 6.15353C3.99934 6.17926 4.13339 6.16605 4.2552 6.11559C4.37702 6.06514 4.48114 5.97969 4.55439 5.87006C4.62765 5.76042 4.66675 5.63153 4.66675 5.49967C4.66675 5.32286 4.59651 5.15329 4.47149 5.02827C4.34646 4.90325 4.17689 4.83301 4.00008 4.83301ZM12.0001 4.83301C11.8682 4.83301 11.7393 4.87211 11.6297 4.94536C11.5201 5.01862 11.4346 5.12273 11.3842 5.24455C11.3337 5.36637 11.3205 5.50041 11.3462 5.62973C11.3719 5.75906 11.4354 5.87784 11.5287 5.97108C11.6219 6.06431 11.7407 6.12781 11.87 6.15353C11.9993 6.17926 12.1334 6.16605 12.2552 6.11559C12.377 6.06514 12.4811 5.97969 12.5544 5.87006C12.6276 5.76042 12.6667 5.63153 12.6667 5.49967C12.6667 5.32286 12.5965 5.15329 12.4715 5.02827C12.3465 4.90325 12.1769 4.83301 12.0001 4.83301ZM13.3334 0.833008H2.66675C2.13631 0.833008 1.62761 1.04372 1.25253 1.41879C0.877462 1.79387 0.666748 2.30257 0.666748 2.83301V8.16634C0.666748 8.69677 0.877462 9.20548 1.25253 9.58055C1.62761 9.95563 2.13631 10.1663 2.66675 10.1663H13.3334C13.8638 10.1663 14.3726 9.95563 14.7476 9.58055C15.1227 9.20548 15.3334 8.69677 15.3334 8.16634V2.83301C15.3334 2.30257 15.1227 1.79387 14.7476 1.41879C14.3726 1.04372 13.8638 0.833008 13.3334 0.833008ZM14.0001 8.16634C14.0001 8.34315 13.9298 8.51272 13.8048 8.63775C13.6798 8.76277 13.5102 8.83301 13.3334 8.83301H2.66675C2.48994 8.83301 2.32037 8.76277 2.19534 8.63775C2.07032 8.51272 2.00008 8.34315 2.00008 8.16634V2.83301C2.00008 2.6562 2.07032 2.48663 2.19534 2.3616C2.32037 2.23658 2.48994 2.16634 2.66675 2.16634H13.3334C13.5102 2.16634 13.6798 2.23658 13.8048 2.3616C13.9298 2.48663 14.0001 2.6562 14.0001 2.83301V8.16634ZM8.00008 3.49967C7.60452 3.49967 7.21784 3.61697 6.88894 3.83674C6.56004 4.0565 6.3037 4.36886 6.15232 4.73431C6.00095 5.09976 5.96134 5.50189 6.03851 5.88986C6.11568 6.27782 6.30616 6.63418 6.58587 6.91389C6.86557 7.19359 7.22194 7.38408 7.6099 7.46125C7.99786 7.53842 8.4 7.49881 8.76545 7.34743C9.1309 7.19606 9.44326 6.93971 9.66302 6.61082C9.88278 6.28192 10.0001 5.89524 10.0001 5.49967C10.0001 4.96924 9.78937 4.46053 9.41429 4.08546C9.03922 3.71039 8.53051 3.49967 8.00008 3.49967ZM8.00008 6.16634C7.86823 6.16634 7.73933 6.12724 7.6297 6.05399C7.52007 5.98073 7.43462 5.87661 7.38416 5.7548C7.3337 5.63298 7.3205 5.49894 7.34622 5.36961C7.37195 5.24029 7.43544 5.12151 7.52868 5.02827C7.62191 4.93504 7.7407 4.87154 7.87002 4.84582C7.99934 4.82009 8.13339 4.8333 8.2552 4.88375C8.37702 4.93421 8.48114 5.01966 8.55439 5.12929C8.62765 5.23893 8.66675 5.36782 8.66675 5.49967C8.66675 5.67649 8.59651 5.84605 8.47149 5.97108C8.34646 6.0961 8.17689 6.16634 8.00008 6.16634Z" fill="#4F5665"/>
</svg>
