<svg width="12" height="12" viewBox="0 0 12 12" fill="none" xmlns="http://www.w3.org/2000/svg">
<path d="M9.99984 4.66699H7.33317V2.00033C7.33317 1.6467 7.19269 1.30756 6.94265 1.05752C6.6926 0.807468 6.35346 0.666992 5.99984 0.666992C5.64622 0.666992 5.30708 0.807468 5.05703 1.05752C4.80698 1.30756 4.6665 1.6467 4.6665 2.00033L4.71384 4.66699H1.99984C1.64622 4.66699 1.30708 4.80747 1.05703 5.05752C0.80698 5.30757 0.666504 5.6467 0.666504 6.00033C0.666504 6.35395 0.80698 6.69309 1.05703 6.94313C1.30708 7.19318 1.64622 7.33366 1.99984 7.33366L4.71384 7.28633L4.6665 10.0003C4.6665 10.3539 4.80698 10.6931 5.05703 10.9431C5.30708 11.1932 5.64622 11.3337 5.99984 11.3337C6.35346 11.3337 6.6926 11.1932 6.94265 10.9431C7.19269 10.6931 7.33317 10.3539 7.33317 10.0003V7.28633L9.99984 7.33366C10.3535 7.33366 10.6926 7.19318 10.9426 6.94313C11.1927 6.69309 11.3332 6.35395 11.3332 6.00033C11.3332 5.6467 11.1927 5.30757 10.9426 5.05752C10.6926 4.80747 10.3535 4.66699 9.99984 4.66699Z" fill="white"/>
</svg>
