<svg width="23" height="22" viewBox="0 0 23 22" fill="none" xmlns="http://www.w3.org/2000/svg">
<path d="M11.9135 16.8812L16.6419 19.8769C17.2463 20.2598 17.9967 19.6903 17.8173 18.9847L16.4512 13.6108C16.4127 13.4611 16.4173 13.3036 16.4643 13.1564C16.5114 13.0092 16.5991 12.8783 16.7172 12.7787L20.9573 9.24959C21.5144 8.78588 21.2269 7.86126 20.5111 7.81481L14.9738 7.45544C14.8247 7.44479 14.6816 7.39198 14.5613 7.30317C14.441 7.21437 14.3484 7.09321 14.2943 6.95382L12.2292 1.75323C12.173 1.60528 12.0732 1.4779 11.943 1.38802C11.8127 1.29814 11.6582 1.25 11.5 1.25C11.3418 1.25 11.1873 1.29814 11.057 1.38802C10.9268 1.4779 10.827 1.60528 10.7708 1.75323L8.70568 6.95382C8.65157 7.09321 8.55897 7.21437 8.43868 7.30317C8.31838 7.39198 8.17533 7.44479 8.02618 7.45544L2.48894 7.81481C1.77315 7.86126 1.4856 8.78588 2.04272 9.24959L6.28278 12.7787C6.40095 12.8783 6.4886 13.0092 6.53566 13.1564C6.58272 13.3036 6.58727 13.4611 6.5488 13.6108L5.28188 18.5945C5.06667 19.4412 5.96715 20.1246 6.69243 19.6651L11.0865 16.8812C11.21 16.8025 11.3535 16.7607 11.5 16.7607C11.6465 16.7607 11.79 16.8025 11.9135 16.8812V16.8812Z" stroke="#4F5665" stroke-width="2" stroke-linecap="round" stroke-linejoin="round"/>
</svg>
