<svg width="14" height="14" viewBox="0 0 14 14" fill="none" xmlns="http://www.w3.org/2000/svg">
<path d="M13.2218 5.13165L9.25462 4.55508L7.48118 0.959771C7.43274 0.861334 7.35306 0.781646 7.25462 0.733209C7.00774 0.611334 6.70774 0.712896 6.58431 0.959771L4.81087 4.55508L0.843682 5.13165C0.734307 5.14727 0.634307 5.19883 0.557744 5.27696C0.465184 5.37209 0.41418 5.50008 0.415938 5.63281C0.417695 5.76553 0.472072 5.89212 0.567119 5.98477L3.43743 8.78321L2.75931 12.7348C2.7434 12.8267 2.75358 12.9212 2.78867 13.0077C2.82376 13.0941 2.88237 13.169 2.95785 13.2238C3.03333 13.2786 3.12266 13.3112 3.21571 13.3178C3.30876 13.3245 3.40181 13.3049 3.48431 13.2613L7.03274 11.3957L10.5812 13.2613C10.6781 13.3129 10.7906 13.3301 10.8984 13.3113C11.1702 13.2645 11.3531 13.0066 11.3062 12.7348L10.6281 8.78321L13.4984 5.98477C13.5765 5.90821 13.6281 5.80821 13.6437 5.69883C13.6859 5.4254 13.4952 5.17227 13.2218 5.13165Z" fill="#FF8906"/>
</svg>
