<svg width="35" height="32" viewBox="0 0 35 32" fill="none" xmlns="http://www.w3.org/2000/svg">
<path fill-rule="evenodd" clip-rule="evenodd" d="M6.95553 3.26354C6.95553 1.46127 8.31095 0 9.98267 0H25.0356C26.7073 0 28.0615 1.46127 28.0615 3.26354V19.492C28.0615 21.2943 26.7073 22.7555 25.0356 22.7555H9.98267C8.31095 22.7555 6.95553 21.2943 6.95553 19.492V3.26354ZM10.6375 20.5257C9.74668 20.5257 9.02387 19.7464 9.02387 18.7847V3.97486C9.02387 3.01444 9.74668 2.23519 10.6375 2.23519H12.4785C14.9052 2.23519 16.7017 4.88465 15.1498 6.56038L10.6486 11.4197L14.5122 15.7835C16.3854 17.8988 14.191 20.5257 12.1128 20.5257H10.6375ZM16.4805 2.23519H18.0361C20.4615 2.23519 22.258 4.88465 20.7074 6.56038L16.205 11.4197L24.4808 20.5217L15.7478 20.5203C17.6234 20.5203 18.8083 17.1169 16.8005 14.8631L13.7338 11.4197L17.3034 7.45286C19.2259 5.31624 17.831 2.56687 16.4805 2.23519ZM25.9919 18.7847L19.2902 11.4197L22.861 7.45286C24.7835 5.31624 23.3873 2.56687 22.0368 2.23519H24.3745C25.2666 2.23519 25.9894 3.01444 25.9894 3.97486L25.9919 18.7847ZM1.38314 29.6329V30.9597H1.93173C2.21714 30.9597 2.43337 30.9011 2.5804 30.7865C2.72743 30.6719 2.80157 30.5041 2.80157 30.2843C2.80157 30.0672 2.73361 29.9047 2.59893 29.7954C2.46426 29.6875 2.26286 29.6329 1.99474 29.6329H1.38314ZM1.38314 27.3711V28.6326H1.80694C2.10224 28.6326 2.32217 28.5779 2.4692 28.4714C2.61499 28.3635 2.68789 28.1996 2.68789 27.9799C2.68789 27.78 2.61994 27.6295 2.48155 27.5256C2.34441 27.4231 2.14054 27.3711 1.87366 27.3711H1.38314ZM0.0166016 26.3534H2.16031C2.79415 26.3534 3.27108 26.476 3.58986 26.7211C3.90987 26.9675 4.06925 27.3325 4.06925 27.8173C4.06925 28.1424 3.98524 28.4141 3.81843 28.6299C3.65163 28.8457 3.40823 29.0015 3.08822 29.0961C3.44777 29.168 3.7233 29.3199 3.91604 29.5517C4.10879 29.7835 4.20517 30.0792 4.20517 30.4388C4.20517 30.969 4.02972 31.3619 3.67758 31.6177C3.32668 31.8721 2.7855 32 2.05405 32H0.0166016V26.3534H0.0166016ZM7.19523 27.6135L6.51691 29.7302H7.85132L7.19523 27.6135ZM6.381 26.3534H8.06507L10.0482 32H8.55559L8.18369 30.8038H6.16724L5.77681 32H4.39544L6.381 26.3534ZM10.3496 26.3534H12.093L13.6091 29.7395C13.6609 29.8527 13.7215 30.0112 13.7907 30.2137C13.8586 30.4162 13.9352 30.6653 14.018 30.9597C13.9748 30.6813 13.9414 30.4255 13.9204 30.1924C13.8994 29.9593 13.8895 29.7462 13.8895 29.553V26.3534H15.1498V32H13.4138L11.8385 28.4914C11.7656 28.3302 11.6976 28.1544 11.6359 27.9652C11.5753 27.776 11.5185 27.5696 11.4666 27.3471C11.516 27.6841 11.5518 27.9932 11.5753 28.2756C11.5988 28.5566 11.6111 28.8057 11.6111 29.0202V32H10.3496V26.3534ZM16.1407 26.3534H17.5369V28.7937L19.1592 26.3534H20.7222L18.7984 28.9483L20.9187 32H19.1839L17.5369 29.3812V32H16.1407V26.3534ZM24.9812 29.6329V30.9597H25.531C25.8152 30.9597 26.0314 30.9011 26.1785 30.7865C26.3267 30.6719 26.3996 30.5041 26.3996 30.2843C26.3996 30.0672 26.3329 29.9047 26.197 29.7954C26.0623 29.6875 25.8609 29.6329 25.5928 29.6329H24.9812ZM24.9812 27.3711V28.6326H25.405C25.7003 28.6326 25.9215 28.5779 26.0673 28.4714C26.213 28.3635 26.2872 28.1996 26.2872 27.9799C26.2872 27.78 26.218 27.6295 26.0796 27.5256C25.9425 27.4231 25.7398 27.3711 25.4717 27.3711H24.9812ZM23.6147 26.3534H25.7596C26.3934 26.3534 26.8691 26.476 27.1891 26.7211C27.5079 26.9675 27.6673 27.3325 27.6673 27.8173C27.6673 28.1424 27.5845 28.4141 27.4177 28.6299C27.2497 28.8457 27.0063 29.0015 26.6875 29.0961C27.0458 29.168 27.3214 29.3199 27.5141 29.5517C27.7068 29.7835 27.8032 30.0792 27.8032 30.4388C27.8032 30.969 27.6278 31.3619 27.2769 31.6177C26.926 31.8721 26.3836 32 25.6521 32H23.6147V26.3534ZM29.9939 27.3471V28.7951H30.4844C30.7859 28.7951 31.0132 28.7351 31.164 28.6179C31.3147 28.4994 31.3901 28.3222 31.3901 28.0864C31.3901 27.832 31.306 27.6455 31.138 27.5256C30.97 27.4057 30.7043 27.3471 30.3398 27.3471H29.9939ZM28.6286 26.3534H30.7093C31.4024 26.3534 31.9164 26.4746 32.2525 26.7171C32.5886 26.9595 32.7566 27.3285 32.7566 27.824C32.7566 28.1903 32.6676 28.4914 32.491 28.7271C32.313 28.9629 32.0573 29.1201 31.7224 29.2C31.998 29.3079 32.2191 29.617 32.3872 30.1258L33.0124 32H31.5569L31.096 30.4548C31.0219 30.2057 30.9218 30.0339 30.7933 29.938C30.666 29.8434 30.4671 29.7954 30.1965 29.7954H29.9939V32H28.6286V26.3534ZM33.5869 26.3534H34.9831V32H33.5869V26.3534Z" fill="#1F4396"/>
</svg>
