<svg width="99" height="77" viewBox="0 0 99 77" fill="none" xmlns="http://www.w3.org/2000/svg">
<path d="M23.1714 46.4687C19.5375 46.4687 16.5925 43.092 16.5925 38.9269C16.5925 34.7616 19.5375 31.3882 23.1714 31.3882C24.4522 31.3882 25.6481 31.8068 26.6583 32.5324L23.1714 38.9269L29.7358 34.5834C29.0226 33.2812 27.9997 32.1591 26.7628 31.3077C25.1889 30.2279 22.9995 29.5596 20.5785 29.5596C17.125 29.5596 14.0953 30.9977 12.4057 33.1513C11.1548 34.7434 10.41 36.7471 10.41 38.9268C10.41 41.1081 11.1548 43.1133 12.4057 44.7064C14.0997 46.8627 17.0843 48.2925 20.4808 48.2925C23.8768 48.2925 26.8605 46.8616 28.5556 44.7064C28.6484 44.5878 28.7383 44.468 28.8233 44.3437L28.5673 43.2443C27.3763 45.1923 25.4038 46.4687 23.1714 46.4687Z" fill="#4F5665"/>
<path d="M44.9337 47.839L42.1786 36.061C41.7361 34.1577 40.2237 32.7588 38.4231 32.7588C37.9561 32.7588 37.5086 32.8544 37.0934 33.0275L31.1622 35.4991H37.2624L38.3049 39.9604C37.2937 38.9631 35.9767 38.3563 34.5347 38.3563C31.6712 38.3563 29.3528 40.5552 29.3528 43.2678C29.3528 45.9805 31.6712 48.1827 34.5347 48.1827C36.5961 48.1827 38.4192 47.0262 39.5437 45.2494L40.1485 47.839H44.9337ZM36.5297 46.0096C35.2088 46.0096 34.1381 44.7837 34.1381 43.2678C34.1381 41.7541 35.2088 40.527 36.5297 40.527C37.8506 40.527 38.9223 41.7541 38.9223 43.2678C38.9223 44.7837 37.8506 46.0096 36.5297 46.0096Z" fill="#4F5665"/>
<path d="M56.1675 32.7607C55.806 32.7607 55.4641 32.8523 55.1593 33.0163L51.351 35.0502C51.1624 33.751 50.1776 32.7607 48.9896 32.7607C48.6301 32.7607 48.2872 32.8523 47.9784 33.0163L43.329 35.499H46.598V47.8391H51.3832V36.8719C51.3832 36.1151 51.9176 35.4991 52.58 35.4991C53.2385 35.4991 53.7768 36.1151 53.7768 36.8719V47.8391H58.5602V35.499C58.5602 33.9857 57.4884 32.7609 56.1675 32.7609" fill="#4F5665"/>
<path d="M86.1769 32.7607C85.8145 32.7607 85.4706 32.8523 85.1609 33.0163L81.3565 35.0502C81.1689 33.751 80.1841 32.7607 78.9961 32.7607C78.6366 32.7607 78.2936 32.8523 77.9839 33.0163L73.3364 35.499H76.6044V47.8391H81.3887V36.8719C81.3887 36.1151 81.9241 35.4991 82.5865 35.4991C83.247 35.4991 83.7814 36.1151 83.7814 36.8719V47.8391H88.5686V35.499C88.5686 33.9857 87.4959 32.7609 86.1769 32.7609" fill="#4F5665"/>
<path d="M74.1094 40.5269C74.1094 44.8161 71.0758 48.2924 67.334 48.2924C63.5892 48.2924 60.5537 44.8161 60.5537 40.5269C60.5537 36.2387 63.5892 32.7607 67.334 32.7607C71.0758 32.7607 74.1094 36.2388 74.1094 40.5269ZM67.6144 35.1177C67.4014 34.2039 66.5817 33.6614 65.7845 33.9071C64.9882 34.1517 64.5124 35.0916 64.7264 36.0053L67.0507 45.9357C67.2656 46.8504 68.0833 47.3923 68.8805 47.1504C69.6778 46.903 70.1516 45.9637 69.9376 45.0501L67.6144 35.1177Z" fill="#4F5665"/>
</svg>
