<svg width="335" height="160" viewBox="0 0 335 160" fill="none" xmlns="http://www.w3.org/2000/svg">
<rect y="0.543945" width="335" height="158.632" rx="8" fill="#2948FF"/>
<path fill-rule="evenodd" clip-rule="evenodd" d="M335 67.9487C327.909 65.1444 320.18 63.6035 312.092 63.6035C277.674 63.6035 249.772 91.5051 249.772 125.923C249.772 138.15 253.293 149.554 259.376 159.177H261.469C255.186 149.632 251.531 138.205 251.531 125.923C251.531 92.4763 278.645 65.362 312.092 65.362C320.199 65.362 327.933 66.9548 335 69.8446V67.9487Z" fill="#4A88FF"/>
<path fill-rule="evenodd" clip-rule="evenodd" d="M16.011 105.971C50.4293 105.971 78.3308 78.0693 78.3308 43.651C78.3308 26.9249 71.7415 11.7378 61.0172 0.543945H58.6107C69.7275 11.5307 76.6159 26.7864 76.6159 43.651C76.6159 77.1221 49.4821 104.256 16.011 104.256C10.4688 104.256 5.10029 103.512 0 102.118V103.895C5.10915 105.249 10.4758 105.971 16.011 105.971Z" fill="#4A88FF"/>
</svg>
