<svg width="99" height="77" viewBox="0 0 99 77" fill="none" xmlns="http://www.w3.org/2000/svg">
<path d="M48.5319 10.417H50.0585C57.4841 10.8938 62.7785 14.1046 66.7037 18.6045C70.629 23.1043 73.5305 29.0393 73.9182 37.5309V39.2132C73.5412 47.8407 70.5884 53.5348 66.7037 58.1677C62.6229 62.5685 57.6063 65.9027 50.0339 66.327H48.5319C41.1072 65.8492 35.8118 62.6397 31.8866 58.1396C27.9615 53.6397 25.0598 47.7049 24.6721 39.2132V37.5309C24.6914 37.5248 24.7009 37.5075 24.6968 37.4748C25.068 29.0156 27.9855 23.019 31.8868 18.5764C35.806 14.1132 41.1553 10.8794 48.5319 10.417ZM43.7057 14.4266C42.2427 14.8727 40.9307 15.4392 39.7415 16.1089C36.1217 18.1471 33.1367 21.0632 31.0495 24.801C29.0123 28.4495 27.2484 33.1429 27.5039 39.2973C27.6649 43.1773 28.4424 46.4411 29.6706 49.2232C32.096 54.7164 35.7886 58.764 40.8988 61.2241C43.4259 62.4405 46.5571 63.2938 50.0832 63.1026C53.4655 62.9192 56.3963 62.0534 58.8245 60.6632C63.5834 57.9384 67.3338 53.7343 69.4125 47.9334C70.4638 44.9991 71.2588 41.6092 71.0869 37.5028C70.7616 29.7238 67.9828 24.4492 64.3156 20.4269C62.5011 18.4367 60.3161 16.7437 57.7413 15.5201C55.243 14.3329 51.9908 13.4526 48.5076 13.6415C46.7952 13.7343 45.1798 13.9771 43.7057 14.4266Z" fill="#4F5665"/>
<path d="M47.0303 31.1104C47.8105 31.6986 48.6084 32.2667 49.3449 32.9048C47.6812 34.0945 46.0501 35.3215 44.3958 36.5219C44.647 36.7406 44.9325 36.92 45.1836 37.1387C46.8518 35.9353 48.5204 34.7326 50.1822 33.5217C50.9275 34.047 51.6612 34.5853 52.3491 35.1761C50.684 36.3737 49.0746 37.6346 47.4244 38.8491C47.669 39.0755 47.9687 39.2388 48.2369 39.438C49.9425 38.2492 51.6056 37.012 53.2846 35.793V31.8113H56.9781V39.7465C58.0204 39.8118 59.1696 39.7558 60.2531 39.7743V43.5037H53.2846V39.7182C51.2372 41.1347 49.1391 42.7364 47.0796 44.2326C44.9349 42.6467 42.8679 40.9719 40.7269 39.3819C40.1066 41.6206 38.6335 43.3047 36.1961 43.5037C34.676 43.6275 32.9486 43.4112 31.1976 43.5037V31.8113C33.3866 31.9765 35.7903 31.478 37.5257 32.0917C39.0602 32.6344 40.1481 34.0286 40.6529 35.7648C42.7955 34.2324 44.9037 32.6611 47.0303 31.1104ZM34.7186 35.5686V39.7744C35.5985 39.7794 36.2676 39.8375 36.7869 39.382C37.5595 38.7044 37.7152 37.0245 37.0331 36.1293C36.578 35.5321 35.8095 35.4067 34.7432 35.4845C34.7147 35.4892 34.7165 35.5288 34.7186 35.5686ZM61.2132 31.8113H64.9066V39.7744H68.1569V43.5038H61.1883V31.8955C61.1864 31.8557 61.1844 31.816 61.2132 31.8113Z" fill="#4F5665"/>
</svg>
