<svg width="99" height="77" viewBox="0 0 99 77" fill="none" xmlns="http://www.w3.org/2000/svg">
<path d="M50.0422 17.6299L43.5496 22.4376L50.0422 27.2452L43.5496 32.0529L37.0569 27.2052L43.5496 22.3975L37.0569 17.6299L43.5496 12.8223L50.0422 17.6299ZM43.515 33.5753L50.0077 28.7677L56.5004 33.5753L50.0077 38.383L43.515 33.5753ZM50.0422 27.2052L56.5349 22.3975L50.0422 17.6299L56.5004 12.8223L62.993 17.6299L56.5004 22.4376L62.993 27.2452L56.5004 32.0529L50.0422 27.2052Z" fill="#4F5665"/>
<path d="M13.2081 45.8784H17.9542C20.9829 45.8784 23.4809 47.8822 23.4809 52.4622V53.4283C23.4809 58.0442 21.1391 60.1195 18.0479 60.1195H13.2081V45.8784ZM15.8622 48.4547V57.5074H17.8918C19.6091 57.5074 20.7644 56.2193 20.7644 53.3568V52.6054C20.7644 49.7428 19.5466 48.4547 17.7981 48.4547H15.8622ZM24.886 48.5978H27.0092L27.3527 51.2814C27.7586 49.4566 28.789 48.4905 30.6624 48.4905H31.3181V51.5677H30.2253C28.0708 51.5677 27.54 52.4264 27.54 54.8596V60.1553H24.9172V48.5978H24.886ZM31.849 54.6091V54.2871C31.849 50.4227 34.0034 48.3116 36.9385 48.3116C39.936 48.3116 42.028 50.4227 42.028 54.2871V54.6091C42.028 58.402 39.9985 60.4415 36.9385 60.4415C33.6912 60.4058 31.849 58.402 31.849 54.6091ZM39.3427 54.5733V54.2871C39.3427 52.1402 38.406 50.8521 36.9073 50.8521C35.4397 50.8521 34.4718 52.0329 34.4718 54.2871V54.5733C34.4718 56.6487 35.4085 57.8295 36.9073 57.8295C38.406 57.7937 39.3427 56.6487 39.3427 54.5733ZM43.4019 48.5978H45.5876L45.8374 50.7805C46.3682 49.3134 47.4923 48.3116 49.1471 48.3116C51.7075 48.3116 53.3936 50.4227 53.3936 54.3229V54.6449C53.3936 58.4378 51.5202 60.4415 49.1471 60.4415C47.5547 60.4415 46.4619 59.6186 45.931 58.2946V64.127H43.3707L43.4019 48.5978ZM50.7396 54.5733V54.3229C50.7396 52.0329 49.7092 50.8878 48.3353 50.8878C46.8678 50.8878 45.8998 52.176 45.8998 54.3229V54.5376C45.8998 56.5771 46.8365 57.8653 48.3041 57.8653C49.8028 57.8295 50.7396 56.7202 50.7396 54.5733ZM57.2654 58.0084L57.0468 60.1195H54.7987V44.7334H57.3591V50.6374C57.9211 49.1345 59.0452 48.3116 60.6376 48.3116C63.0419 48.3473 64.8217 50.2438 64.8217 54.0724V54.4302C64.8217 58.2589 63.1356 60.4415 60.5752 60.4415C58.8891 60.4058 57.7962 59.5112 57.2654 58.0084ZM62.1364 54.4302V54.144C62.1364 52.0329 61.1372 50.8521 59.7321 50.8521C58.2958 50.8521 57.2966 52.176 57.2966 54.1797V54.4302C57.2966 56.5771 58.2646 57.8295 59.7009 57.8295C61.2309 57.8295 62.1364 56.7202 62.1364 54.4302ZM65.9457 54.6091V54.2871C65.9457 50.4227 68.1002 48.3116 71.0353 48.3116C74.0328 48.3116 76.1248 50.4227 76.1248 54.2871V54.6091C76.1248 58.402 74.064 60.4415 71.0353 60.4415C67.788 60.4058 65.9457 58.402 65.9457 54.6091ZM73.4708 54.5733V54.2871C73.4708 52.1402 72.534 50.8521 71.0353 50.8521C69.5677 50.8521 68.5998 52.0329 68.5998 54.2871V54.5733C68.5998 56.6487 69.5365 57.8295 71.0353 57.8295C72.534 57.7937 73.4708 56.6487 73.4708 54.5733ZM79.5595 54.144L76.0311 48.5978H79.0599L81.0895 52.0686L83.1502 48.5978H86.1478L82.557 54.1082L86.3351 60.1195H83.3688L81.0582 56.2909L78.8101 60.1195H75.7189L79.5595 54.144Z" fill="#4F5665"/>
</svg>
