<svg width="99" height="77" viewBox="0 0 99 77" fill="none" xmlns="http://www.w3.org/2000/svg">
<path d="M86.268 53.6619V51.6226H84.0454V48.4522L83.9706 48.4784L81.8829 49.2061L81.8418 49.2204V51.6226H78.5468V50.2845C78.5468 49.6614 78.6691 49.1845 78.9101 48.8665C79.1495 48.5523 79.4918 48.3926 79.9283 48.3926C80.2422 48.3926 80.5673 48.4769 80.8942 48.643L80.9762 48.6847V46.537L80.9377 46.5209C80.6326 46.396 80.2175 46.333 79.7032 46.333C79.0549 46.333 78.4658 46.4937 77.9522 46.8123C77.4381 47.1312 77.0338 47.5867 76.7506 48.1657C76.4683 48.7441 76.3251 49.4121 76.3251 50.1513V51.6226H74.7774V53.6619H76.3251V62.2529H78.5468V53.6619H81.8418V59.1214C81.8418 61.3698 82.7727 62.5094 84.6084 62.5094C84.9101 62.5094 85.2275 62.469 85.5518 62.39C85.8817 62.3091 86.1064 62.2282 86.2387 62.1419L86.268 62.1222V60.064L86.1777 60.1322C86.0571 60.2239 85.9069 60.2986 85.7308 60.3541C85.554 60.4108 85.4063 60.4392 85.292 60.4392C84.8619 60.4392 84.5438 60.3072 84.3463 60.0466C84.1467 59.7837 84.0454 59.3238 84.0454 58.6807V53.6619H86.268ZM69.8159 60.4394C69.0094 60.4394 68.3737 60.1347 67.9256 59.5346C67.4748 58.9314 67.2464 58.0715 67.2464 56.979C67.2464 55.8518 67.4748 54.9695 67.9259 54.3557C68.3742 53.7459 69.0039 53.4364 69.7978 53.4364C70.5681 53.4364 71.1814 53.732 71.6206 54.3154C72.0621 54.9018 72.2861 55.777 72.2861 56.9174C72.2861 58.0718 72.0754 58.9585 71.66 59.5516C71.2475 60.1404 70.6271 60.4394 69.8159 60.4394ZM69.9148 51.3665C68.3763 51.3665 67.1543 51.8801 66.2831 52.8931C65.4125 53.9063 64.9709 55.3083 64.9709 57.0607C64.9709 58.725 65.4019 60.0638 66.2519 61.0391C67.1018 62.0149 68.2586 62.5091 69.6897 62.5091C71.1811 62.5091 72.3788 61.9884 73.2497 60.9613C74.1205 59.9352 74.5616 58.5465 74.5616 56.8351C74.5616 55.1447 74.1477 53.796 73.3308 52.8271C72.5135 51.8578 71.364 51.3665 69.9148 51.3665ZM61.3887 51.3664C60.3422 51.3664 59.4766 51.6714 58.8153 52.2728C58.15 52.8776 57.8125 53.6711 57.8125 54.6312C57.8125 55.1302 57.8854 55.5735 58.0288 55.9494C58.173 56.3268 58.3962 56.6588 58.6927 56.9375C58.9871 57.214 59.4412 57.5037 60.0432 57.7983C60.5491 58.0356 60.9265 58.2363 61.1662 58.3945C61.4006 58.5494 61.5669 58.7054 61.6608 58.8571C61.752 59.0055 61.7984 59.2087 61.7984 59.4597C61.7984 60.1738 61.3291 60.5213 60.3631 60.5213C60.0049 60.5213 59.5962 60.4362 59.1485 60.268C58.7006 60.1002 58.282 59.8589 57.9047 59.5494L57.8125 59.4741V61.9112L57.8464 61.9292C58.1608 62.0945 58.5571 62.2338 59.0242 62.3436C59.4905 62.4534 59.9141 62.5094 60.2822 62.5094C61.4178 62.5094 62.3323 62.2029 62.9995 61.598C63.6711 60.9889 64.0114 60.1768 64.0114 59.1833C64.0114 58.4668 63.8282 57.8523 63.467 57.3568C63.1084 56.8652 62.486 56.414 61.6176 56.0151C60.9259 55.6987 60.4828 55.4361 60.3 55.2346C60.1238 55.0399 60.0343 54.7645 60.0343 54.4158C60.0343 54.1066 60.1447 53.859 60.3715 53.6583C60.6 53.4567 60.918 53.3542 61.317 53.3542C61.6872 53.3542 62.066 53.4208 62.4425 53.5514C62.819 53.6819 63.1495 53.8568 63.4255 54.0707L63.5162 54.1414V51.8295L63.4814 51.8124C63.2268 51.6881 62.8911 51.5816 62.4834 51.4953C62.0773 51.4097 61.7089 51.3664 61.3887 51.3664ZM52.0205 60.4394C51.2143 60.4394 50.5783 60.1347 50.1304 59.5346C49.6795 58.9314 49.4514 58.0718 49.4514 56.979C49.4514 55.8518 49.6797 54.9695 50.1309 54.3557C50.5788 53.7459 51.2084 53.4364 52.0027 53.4364C52.7728 53.4364 53.386 53.732 53.8253 54.3154C54.2669 54.9018 54.4908 55.777 54.4908 56.9174C54.4908 58.0718 54.28 58.9585 53.8646 59.5516C53.4521 60.1404 52.832 60.4394 52.0205 60.4394ZM52.1197 51.3665C50.5808 51.3665 49.3588 51.8801 48.488 52.8931C47.6173 53.9063 47.1755 55.3083 47.1755 57.0607C47.1755 58.7257 47.6067 60.0638 48.4567 61.0391C49.3067 62.0149 50.4634 62.5091 51.8946 62.5091C53.3856 62.5091 54.5836 61.9884 55.4545 60.9613C56.3251 59.9352 56.7665 58.5465 56.7665 56.8351C56.7665 55.1447 56.3524 53.796 55.5354 52.8271C54.7179 51.8578 53.5686 51.3665 52.1197 51.3665ZM43.803 53.4635V51.6226H41.6083V62.2526H43.803V56.815C43.803 55.8903 43.9869 55.1307 44.35 54.557C44.7085 53.9901 45.1862 53.7028 45.7694 53.7028C45.967 53.7028 46.1889 53.74 46.4292 53.8134C46.6671 53.8865 46.8394 53.9657 46.941 54.0491L47.0332 54.1253V51.6044L46.9977 51.587C46.7933 51.488 46.5042 51.4381 46.1383 51.4381C45.5869 51.4381 45.0933 51.64 44.6705 52.0375C44.2995 52.3869 44.0312 52.866 43.8262 53.4635H43.803ZM37.6781 51.3664C36.6713 51.3664 35.7732 51.6125 35.0092 52.0973C34.2438 52.5833 33.6519 53.2772 33.2491 54.1596C32.8481 55.0399 32.6446 56.0681 32.6446 57.2146C32.6446 58.2189 32.842 59.1407 33.2321 59.953C33.6224 60.7666 34.175 61.4032 34.8744 61.8447C35.5727 62.2857 36.3799 62.5094 37.2736 62.5094C38.3165 62.5094 39.207 62.2717 39.921 61.8032L39.9498 61.7843V59.4935L39.8576 59.5702C39.5342 59.8386 39.1728 60.0528 38.7839 60.2072C38.396 60.3614 38.0423 60.4394 37.7324 60.4394C36.8712 60.4394 36.1799 60.1323 35.6781 59.5271C35.1751 58.921 34.9201 58.07 34.9201 56.9991C34.9201 55.9214 35.1861 55.0486 35.7102 54.4044C36.2326 53.7622 36.9252 53.4365 37.7685 53.4365C38.4899 53.4365 39.1929 53.7149 39.8579 54.2645L39.9498 54.3406V51.9268L39.9202 51.9078C39.6698 51.7482 39.3286 51.6164 38.9048 51.5164C38.4829 51.4167 38.0703 51.3664 37.6781 51.3664ZM31.1331 51.6226H28.9384V62.2527H31.1331V51.6226ZM30.0581 47.0941C29.6969 47.0941 29.3819 47.2342 29.1231 47.5118C28.8632 47.7903 28.7313 48.1408 28.7313 48.5544C28.7313 48.9616 28.8616 49.3057 29.1189 49.5767C29.3746 49.8469 29.6906 49.9839 30.0581 49.9839C30.4255 49.9839 30.7427 49.8469 31.0015 49.5772C31.262 49.3057 31.3941 48.9616 31.3941 48.5544C31.3941 48.1553 31.2656 47.8082 31.0122 47.523C30.7592 47.2384 30.4381 47.0941 30.0581 47.0941ZM24.5823 50.8383V62.2526H26.8221V47.4196H23.7223L19.7821 58.4371L15.9584 47.4196H12.7323V62.2526H14.837V50.8372H14.9094L18.9471 62.2526H20.5354L24.5101 50.8383H24.5823Z" fill="#4F5665"/>
<path d="M47.5116 25.9282H37.1874V14.165H47.5116V25.9282Z" fill="#4F5665"/>
<path d="M58.911 25.9282H48.5869V14.165H58.911V25.9282Z" fill="#4F5665"/>
<path d="M47.5113 38.9213H37.1874V27.1582H47.5113V38.9213Z" fill="#4F5665"/>
<path d="M58.911 38.9213H48.5869V27.1582H58.911V38.9213Z" fill="#4F5665"/>
</svg>
