<svg width="14" height="14" viewBox="0 0 14 14" fill="none" xmlns="http://www.w3.org/2000/svg">
<path fill-rule="evenodd" clip-rule="evenodd" d="M6.12583 7.00006C6.12583 7.68206 5.57316 8.23473 4.89116 8.23473C4.20916 8.23473 3.65649 7.68206 3.65649 7.00006C3.65649 6.31806 4.20916 5.7654 4.89116 5.7654H4.89316C5.57449 5.76606 6.12583 6.31873 6.12583 7.00006Z" stroke="#4F5665" stroke-linecap="round" stroke-linejoin="round"/>
<path d="M6.12787 7.00006H10.3399V8.23473" stroke="#4F5665" stroke-linecap="round" stroke-linejoin="round"/>
<path d="M8.45467 8.23473V7.00006" stroke="#4F5665" stroke-linecap="round" stroke-linejoin="round"/>
<path fill-rule="evenodd" clip-rule="evenodd" d="M0.833252 7.00006C0.833252 2.3754 2.37525 0.833397 6.99992 0.833397C11.6246 0.833397 13.1666 2.3754 13.1666 7.00006C13.1666 11.6247 11.6246 13.1667 6.99992 13.1667C2.37525 13.1667 0.833252 11.6247 0.833252 7.00006Z" stroke="#4F5665" stroke-linecap="round" stroke-linejoin="round"/>
</svg>
