<svg width="18" height="13" viewBox="0 0 18 13" fill="none" xmlns="http://www.w3.org/2000/svg">
<path d="M6.36869 5.392C7.42469 6.096 7.95269 7.088 7.95269 8.368C7.95269 9.616 7.56869 10.608 6.80069 11.344C6.06469 12.08 5.12069 12.448 3.96869 12.448C2.84869 12.448 1.90469 12.096 1.13669 11.392C0.400688 10.688 0.0326876 9.776 0.0326876 8.656C0.0326876 7.536 0.384688 6.432 1.08869 5.344L4.59269 0.256H8.52869L6.36869 5.392ZM15.2487 5.392C16.3047 6.096 16.8327 7.088 16.8327 8.368C16.8327 9.616 16.4487 10.608 15.6807 11.344C14.9447 12.08 14.0007 12.448 12.8487 12.448C11.7287 12.448 10.7847 12.096 10.0167 11.392C9.28069 10.688 8.91269 9.776 8.91269 8.656C8.91269 7.536 9.26469 6.432 9.96869 5.344L13.4727 0.256H17.4087L15.2487 5.392Z" fill="white"/>
</svg>
