<svg width="98" height="23" viewBox="0 0 98 23" fill="none" xmlns="http://www.w3.org/2000/svg">
<g clip-path="url(#clip0_117_1682)">
<path d="M0 6.5C0 3.18629 2.68629 0.5 6 0.5H92C95.3137 0.5 98 3.18629 98 6.5V16.5C98 19.8137 95.3137 22.5 92 22.5H6C2.68629 22.5 0 19.8137 0 16.5V6.5Z" fill="#2948FF"/>
<g clip-path="url(#clip1_117_1682)">
<path fill-rule="evenodd" clip-rule="evenodd" d="M17.5851 4.01936C16.6418 3.32688 15.3582 3.32688 14.4149 4.01936L13.4874 4.7003C13.3343 4.81269 13.1563 4.88642 12.9686 4.9152L11.8312 5.08958C10.6746 5.26691 9.76691 6.17456 9.58958 7.3312L9.4152 8.46858C9.38642 8.6563 9.31269 8.83429 9.2003 8.98738L8.51936 9.91493C7.82688 10.8582 7.82688 12.1418 8.51936 13.0851L9.2003 14.0126C9.31269 14.1657 9.38642 14.3437 9.4152 14.5314L9.58958 15.6688C9.76691 16.8254 10.6746 17.7331 11.8312 17.9104L12.9686 18.0848C13.1563 18.1136 13.3343 18.1873 13.4874 18.2997L14.4149 18.9806C15.3582 19.6731 16.6418 19.6731 17.5851 18.9806L18.5126 18.2997C18.6657 18.1873 18.8437 18.1136 19.0314 18.0848L20.1688 17.9104C21.3254 17.7331 22.2331 16.8254 22.4104 15.6688L22.5848 14.5314C22.6136 14.3437 22.6873 14.1657 22.7997 14.0126L23.4806 13.0851C24.1731 12.1418 24.1731 10.8582 23.4806 9.91493L22.7997 8.98738C22.6873 8.83429 22.6136 8.6563 22.5848 8.46858L22.4104 7.3312C22.2331 6.17456 21.3254 5.26691 20.1688 5.08958L19.0314 4.9152C18.8437 4.88642 18.6657 4.81269 18.5126 4.7003L17.5851 4.01936ZM15.3026 5.22851C15.7176 4.92383 16.2824 4.92383 16.6974 5.22851L17.6249 5.90945C17.9729 6.16489 18.3774 6.33246 18.8041 6.39787L19.9415 6.57225C20.4504 6.65027 20.8497 7.04962 20.9277 7.55852L21.1021 8.69589C21.1675 9.12256 21.3351 9.5271 21.5906 9.87506L22.2715 10.8026C22.5762 11.2176 22.5762 11.7824 22.2715 12.1974L21.5906 13.1249C21.3351 13.4729 21.1675 13.8774 21.1021 14.3041L20.9277 15.4415C20.8497 15.9504 20.4504 16.3497 19.9415 16.4277L18.8041 16.6021C18.3774 16.6675 17.9729 16.8351 17.6249 17.0906L16.6974 17.7715C16.2824 18.0762 15.7176 18.0762 15.3026 17.7715L14.3751 17.0906C14.0271 16.8351 13.6226 16.6675 13.1959 16.6021L12.0585 16.4277C11.5496 16.3497 11.1503 15.9504 11.0722 15.4415L10.8979 14.3041C10.8325 13.8774 10.6649 13.4729 10.4095 13.1249L9.72851 12.1974C9.42383 11.7824 9.42383 11.2176 9.72851 10.8026L10.4095 9.87505C10.6649 9.5271 10.8325 9.12256 10.8979 8.69589L11.0722 7.55852C11.1503 7.04962 11.5496 6.65027 12.0585 6.57225L13.1959 6.39787C13.6226 6.33246 14.0271 6.16489 14.3751 5.90945L15.3026 5.22851ZM19.2803 10.2803C19.5732 9.98744 19.5732 9.51256 19.2803 9.21967C18.9874 8.92678 18.5126 8.92678 18.2197 9.21967L15 12.4393L13.7803 11.2197C13.4874 10.9268 13.0126 10.9268 12.7197 11.2197C12.4268 11.5126 12.4268 11.9874 12.7197 12.2803L14.4697 14.0303C14.7626 14.3232 15.2374 14.3232 15.5303 14.0303L19.2803 10.2803Z" fill="white"/>
</g>
<path d="M36.382 16.5L32.042 6.7H33.162L37.222 15.926H36.606L40.694 6.7H41.744L37.404 16.5H36.382ZM45.5178 16.57C44.7524 16.57 44.0804 16.4113 43.5018 16.094C42.9231 15.7673 42.4704 15.324 42.1438 14.764C41.8171 14.1947 41.6538 13.546 41.6538 12.818C41.6538 12.09 41.8078 11.446 42.1158 10.886C42.4331 10.326 42.8624 9.88733 43.4038 9.57C43.9544 9.24333 44.5704 9.08 45.2518 9.08C45.9424 9.08 46.5538 9.23867 47.0858 9.556C47.6271 9.864 48.0518 10.3027 48.3598 10.872C48.6678 11.432 48.8218 12.0807 48.8218 12.818C48.8218 12.8647 48.8171 12.916 48.8078 12.972C48.8078 13.0187 48.8078 13.07 48.8078 13.126H42.4098V12.384H48.2758L47.8838 12.678C47.8838 12.146 47.7671 11.6747 47.5338 11.264C47.3098 10.844 47.0018 10.5173 46.6098 10.284C46.2178 10.0507 45.7651 9.934 45.2518 9.934C44.7478 9.934 44.2951 10.0507 43.8938 10.284C43.4924 10.5173 43.1798 10.844 42.9558 11.264C42.7318 11.684 42.6198 12.1647 42.6198 12.706V12.86C42.6198 13.42 42.7411 13.9147 42.9838 14.344C43.2358 14.764 43.5811 15.0953 44.0198 15.338C44.4678 15.5713 44.9764 15.688 45.5458 15.688C45.9938 15.688 46.4091 15.6087 46.7918 15.45C47.1838 15.2913 47.5198 15.0487 47.7998 14.722L48.3598 15.366C48.0331 15.758 47.6224 16.0567 47.1278 16.262C46.6424 16.4673 46.1058 16.57 45.5178 16.57ZM50.845 16.5V9.15H51.797V11.152L51.699 10.802C51.9043 10.242 52.2497 9.81733 52.735 9.528C53.2203 9.22933 53.8223 9.08 54.541 9.08V10.046C54.5037 10.046 54.4663 10.046 54.429 10.046C54.3917 10.0367 54.3543 10.032 54.317 10.032C53.5423 10.032 52.9357 10.27 52.497 10.746C52.0583 11.2127 51.839 11.88 51.839 12.748V16.5H50.845ZM56.3548 16.5V9.15H57.3488V16.5H56.3548ZM56.8588 7.526C56.6534 7.526 56.4808 7.456 56.3408 7.316C56.2008 7.176 56.1308 7.008 56.1308 6.812C56.1308 6.616 56.2008 6.45267 56.3408 6.322C56.4808 6.182 56.6534 6.112 56.8588 6.112C57.0641 6.112 57.2368 6.17733 57.3768 6.308C57.5168 6.43867 57.5868 6.602 57.5868 6.798C57.5868 7.00333 57.5168 7.176 57.3768 7.316C57.2461 7.456 57.0734 7.526 56.8588 7.526ZM60.2825 16.5V8.226C60.2825 7.57267 60.4738 7.04533 60.8565 6.644C61.2392 6.24267 61.7898 6.042 62.5085 6.042C62.7885 6.042 63.0592 6.07933 63.3205 6.154C63.5818 6.22867 63.8012 6.34533 63.9785 6.504L63.6425 7.246C63.5025 7.12467 63.3392 7.036 63.1525 6.98C62.9658 6.91467 62.7652 6.882 62.5505 6.882C62.1305 6.882 61.8085 6.99867 61.5845 7.232C61.3605 7.46533 61.2485 7.81067 61.2485 8.268V9.388L61.2765 9.85V16.5H60.2825ZM58.9665 9.976V9.15H63.5165V9.976H58.9665ZM64.8605 16.5V9.15H65.8545V16.5H64.8605ZM65.3645 7.526C65.1592 7.526 64.9865 7.456 64.8465 7.316C64.7065 7.176 64.6365 7.008 64.6365 6.812C64.6365 6.616 64.7065 6.45267 64.8465 6.322C64.9865 6.182 65.1592 6.112 65.3645 6.112C65.5698 6.112 65.7425 6.17733 65.8825 6.308C66.0225 6.43867 66.0925 6.602 66.0925 6.798C66.0925 7.00333 66.0225 7.176 65.8825 7.316C65.7518 7.456 65.5792 7.526 65.3645 7.526ZM71.7678 16.57C71.0024 16.57 70.3304 16.4113 69.7518 16.094C69.1731 15.7673 68.7204 15.324 68.3938 14.764C68.0671 14.1947 67.9038 13.546 67.9038 12.818C67.9038 12.09 68.0578 11.446 68.3658 10.886C68.6831 10.326 69.1124 9.88733 69.6538 9.57C70.2044 9.24333 70.8204 9.08 71.5018 9.08C72.1924 9.08 72.8038 9.23867 73.3358 9.556C73.8771 9.864 74.3018 10.3027 74.6098 10.872C74.9178 11.432 75.0718 12.0807 75.0718 12.818C75.0718 12.8647 75.0671 12.916 75.0578 12.972C75.0578 13.0187 75.0578 13.07 75.0578 13.126H68.6598V12.384H74.5258L74.1338 12.678C74.1338 12.146 74.0171 11.6747 73.7838 11.264C73.5598 10.844 73.2518 10.5173 72.8598 10.284C72.4678 10.0507 72.0151 9.934 71.5018 9.934C70.9978 9.934 70.5451 10.0507 70.1438 10.284C69.7424 10.5173 69.4298 10.844 69.2058 11.264C68.9818 11.684 68.8698 12.1647 68.8698 12.706V12.86C68.8698 13.42 68.9911 13.9147 69.2338 14.344C69.4858 14.764 69.8311 15.0953 70.2698 15.338C70.7178 15.5713 71.2264 15.688 71.7958 15.688C72.2438 15.688 72.6591 15.6087 73.0418 15.45C73.4338 15.2913 73.7698 15.0487 74.0498 14.722L74.6098 15.366C74.2831 15.758 73.8724 16.0567 73.3778 16.262C72.8924 16.4673 72.3558 16.57 71.7678 16.57ZM80.021 16.57C79.321 16.57 78.691 16.4113 78.131 16.094C77.5803 15.7767 77.1463 15.338 76.829 14.778C76.5117 14.2087 76.353 13.5553 76.353 12.818C76.353 12.0713 76.5117 11.418 76.829 10.858C77.1463 10.298 77.5803 9.864 78.131 9.556C78.691 9.23867 79.321 9.08 80.021 9.08C80.665 9.08 81.239 9.22467 81.743 9.514C82.2563 9.80333 82.6623 10.228 82.961 10.788C83.269 11.3387 83.423 12.0153 83.423 12.818C83.423 13.6113 83.2737 14.288 82.975 14.848C82.6763 15.408 82.2703 15.8373 81.757 16.136C81.253 16.4253 80.6743 16.57 80.021 16.57ZM80.091 15.688C80.6137 15.688 81.0803 15.5713 81.491 15.338C81.911 15.0953 82.2377 14.7593 82.471 14.33C82.7137 13.8913 82.835 13.3873 82.835 12.818C82.835 12.2393 82.7137 11.7353 82.471 11.306C82.2377 10.8767 81.911 10.5453 81.491 10.312C81.0803 10.0693 80.6137 9.948 80.091 9.948C79.5777 9.948 79.1157 10.0693 78.705 10.312C78.2943 10.5453 77.9677 10.8767 77.725 11.306C77.4823 11.7353 77.361 12.2393 77.361 12.818C77.361 13.3873 77.4823 13.8913 77.725 14.33C77.9677 14.7593 78.2943 15.0953 78.705 15.338C79.1157 15.5713 79.5777 15.688 80.091 15.688ZM82.863 16.5V14.288L82.961 12.804L82.821 11.32V6.112H83.815V16.5H82.863Z" fill="white"/>
</g>
<defs>
<clipPath id="clip0_117_1682">
<path d="M0 6.5C0 3.18629 2.68629 0.5 6 0.5H92C95.3137 0.5 98 3.18629 98 6.5V16.5C98 19.8137 95.3137 22.5 92 22.5H6C2.68629 22.5 0 19.8137 0 16.5V6.5Z" fill="white"/>
</clipPath>
<clipPath id="clip1_117_1682">
<rect width="16" height="16" fill="white" transform="translate(8 3.5)"/>
</clipPath>
</defs>
</svg>
